<?xml version="1.0" encoding="utf-8"?>
<!-- Generator: Adobe Illustrator 16.0.0, SVG Export Plug-In . SVG Version: 6.00 Build 0)  -->
<!DOCTYPE svg PUBLIC "-//W3C//DTD SVG 1.1//EN" "http://www.w3.org/Graphics/SVG/1.1/DTD/svg11.dtd">
<svg version="1.1" id="Layer_1" xmlns="http://www.w3.org/2000/svg" xmlns:xlink="http://www.w3.org/1999/xlink" x="0px" y="0px"
	 width="125.069px" height="28.967px" viewBox="0 0 125.069 28.967" enable-background="new 0 0 125.069 28.967"
	 xml:space="preserve">
<path fill-rule="evenodd" clip-rule="evenodd" fill="#B4B4B4" d="M125.069,18.438v9.988H114.95c0.362-0.275,0.709-0.578,1.039-0.908
	L125.069,18.438z M96.643,0.001h25.939l-17.056,17.055l-0.005-0.005c-0.894,0.894-1.34,2.065-1.34,3.237h0.005
	c0.001,1.176,0.446,2.348,1.335,3.236c0.887,0.887,2.055,1.332,3.228,1.336h0.005h0.005h0.005c1.174-0.002,2.344-0.447,3.232-1.336
	l11.654-11.654c0.685-0.686,0.685-1.796,0-2.481c-0.686-0.685-1.797-0.685-2.481,0l-11.654,11.654
	c-0.212,0.212-0.483,0.318-0.751,0.318h-0.01c-0.268,0-0.539-0.106-0.75-0.318c-0.213-0.212-0.318-0.483-0.318-0.75v-0.005h0.005
	c0-0.273,0.104-0.547,0.313-0.756l-0.006-0.005l17.07-17.07v11.017l-11.562,11.562c-1.311,1.312-3.03,1.967-4.748,1.967
	s-3.437-0.655-4.748-1.967s-1.968-3.03-1.967-4.748c-0.001-1.718,0.655-3.438,1.967-4.748l11.654-11.655
	c0.685-0.685,0.685-1.796,0-2.481c-0.686-0.685-1.797-0.685-2.481,0L101.53,13.059c-1.997,1.997-2.995,4.613-2.995,7.23
	c0,2.616,0.999,5.233,2.995,7.229c0.33,0.33,0.678,0.633,1.039,0.908h-5.926V0.001z"/>
<path fill="#B4B4B4" d="M4.469,26.92H4.237c0,0-0.28-0.016-0.832-0.048c-0.056-0.008-0.104-0.008-0.16-0.008
	c-0.256,0-0.384,0.031-0.384,0.111c0,0.048,0.048,0.08,0.152,0.104c0.28,0.04,0.56,0.08,0.832,0.12
	c0.288,0.079,0.432,0.231,0.432,0.455c0,0.28-0.192,0.552-0.576,0.824c-0.463,0.327-1.031,0.487-1.703,0.487
	c-0.719,0-1.255-0.184-1.599-0.544C0.136,28.127,0,27.735,0,27.248C0,26.84,0.12,26.416,0.368,26l0.607,0.217
	c-0.048,0.079-0.104,0.207-0.16,0.384c-0.056,0.191-0.088,0.344-0.088,0.447c0,0.664,0.439,0.999,1.319,0.999
	c0.616,0,1.071-0.063,1.367-0.184c0.088-0.04,0.136-0.072,0.136-0.104c0-0.032-0.04-0.048-0.12-0.057
	c-0.24-0.031-0.488-0.056-0.736-0.088c-0.376-0.088-0.568-0.264-0.568-0.512c0-0.319,0.2-0.583,0.592-0.799
	c0.376-0.192,0.808-0.296,1.303-0.296h0.448V26.92z M8.63,26.92H8.19c-0.295,0-0.6-0.096-0.919-0.288
	c-0.296-0.184-0.552-0.432-0.768-0.728c-0.096,0.68-0.704,1.016-1.839,1.016H4.249v-0.911H4.64c0.384,0,0.647-0.009,0.799-0.024
	c0.376-0.056,0.568-0.168,0.568-0.352c0-0.168-0.192-0.416-0.568-0.744c-0.408-0.359-0.64-0.607-0.695-0.735
	c0.008-0.144,0.04-0.304,0.08-0.472C4.88,23.481,4.936,23.362,5,23.33c0.671-0.36,1.847-0.792,3.518-1.312L8.406,22.93
	c-0.376,0.097-0.736,0.185-1.063,0.28c-0.8,0.216-1.407,0.416-1.831,0.592c-0.096,0.04-0.112,0.08-0.04,0.136
	c0.416,0.32,0.855,0.704,1.303,1.151c0.352,0.352,0.6,0.576,0.736,0.664c0.248,0.176,0.52,0.256,0.815,0.256H8.63V26.92z
	 M10.727,26.92h-0.296c-0.375,0-0.616-0.136-0.735-0.408c-0.2,0.272-0.512,0.408-0.936,0.408H8.408v-0.911h0.32
	c0.4,0,0.6-0.137,0.6-0.416v-0.312l0.656-0.216v0.191c0,0.504,0.16,0.752,0.48,0.752h0.264V26.92z M10.535,27.896l-0.432,0.575
	l-0.536-0.375l-0.312,0.439l-0.671-0.456l0.432-0.583l0.56,0.384l0.312-0.433L10.535,27.896z M12.847,25.528
	c0,0.928-0.576,1.392-1.719,1.392h-0.624v-0.911h1.087c0.439,0,0.664-0.152,0.664-0.456c-0.096,0.112-0.296,0.168-0.592,0.168
	c-0.512,0-0.759-0.24-0.759-0.72c0-0.224,0.072-0.479,0.231-0.76c0.184-0.336,0.408-0.512,0.672-0.512
	c0.256,0,0.488,0.185,0.704,0.536C12.735,24.633,12.847,25.057,12.847,25.528z M12.151,22.635l-0.512,0.688l-0.711-0.472l0.52-0.688
	L12.151,22.635z M12.071,24.873c-0.032-0.112-0.08-0.2-0.16-0.28c-0.072-0.079-0.144-0.119-0.208-0.119
	c-0.056,0-0.112,0.04-0.176,0.104c-0.064,0.072-0.096,0.136-0.096,0.184c0,0.192,0.096,0.288,0.296,0.288
	C11.912,25.049,12.023,24.985,12.071,24.873z M14.319,26.824l-0.592,0.216l-0.224-4.605l0.815-0.32V26.824z M18.054,26.92h-0.256
	c-0.208,0-0.352-0.048-0.448-0.152c-0.032,0.416-0.232,0.816-0.6,1.191c-0.36,0.384-0.824,0.688-1.391,0.904l-0.664-0.456
	c0.56-0.24,1.039-0.536,1.447-0.88c0.392-0.336,0.584-0.607,0.584-0.815c0-0.16-0.136-0.424-0.416-0.808l0.616-0.672
	c0.192,0.32,0.336,0.521,0.44,0.608c0.12,0.111,0.28,0.168,0.472,0.168h0.216V26.92z M21.782,21.986l-0.12,0.88
	c-0.408,0.096-0.775,0.191-1.104,0.28c-0.783,0.207-1.319,0.375-1.591,0.503c-0.096,0.04-0.112,0.088-0.048,0.128
	c0.991,0.64,1.487,1.216,1.487,1.728c0,0.487-0.136,0.84-0.399,1.056c-0.296,0.239-0.792,0.359-1.496,0.359h-0.664v-0.911h0.696
	c0.376,0,0.647-0.017,0.815-0.048c0.256-0.049,0.384-0.145,0.384-0.28c0-0.192-0.24-0.472-0.711-0.855
	c-0.528-0.416-0.815-0.688-0.872-0.823c0.008-0.128,0.04-0.28,0.096-0.464c0.064-0.192,0.128-0.304,0.184-0.336
	C19.12,22.842,20.231,22.435,21.782,21.986z M21.83,21.139l-0.048,0.448c-0.488,0.152-0.928,0.296-1.319,0.424
	c-0.952,0.319-1.607,0.56-1.967,0.72l0.104-0.424C19.08,22.083,20.159,21.69,21.83,21.139z M30.133,25.473
	c0,1.111-1.16,1.671-3.478,1.671c-1.551,0-2.319-0.455-2.319-1.359c0-0.271,0.096-0.607,0.296-1.007l0.591,0.184
	c-0.112,0.248-0.176,0.424-0.176,0.536c0,0.224,0.088,0.384,0.256,0.487c0.248,0.16,0.712,0.24,1.391,0.24h0.488
	c0.568,0,1.111-0.072,1.615-0.208c0.464-0.136,0.704-0.256,0.704-0.384c0-0.088-0.136-0.304-0.4-0.64l0.512-0.744
	C29.957,24.602,30.133,25.009,30.133,25.473z M27.958,23.642l-0.424,0.584l-0.536-0.376l-0.312,0.432l-0.671-0.456l0.432-0.583
	l0.56,0.392l0.312-0.439L27.958,23.642z M33.798,22.099c0.032,0.28,0.04,0.575,0.04,0.896c0,1.008-0.152,1.735-0.472,2.167
	c0.2,0.384,0.295,0.728,0.295,1.031c0,0.552-0.416,0.831-1.247,0.831c-0.248,0-0.504-0.023-0.751-0.079
	c-0.232-0.049-0.376-0.097-0.448-0.152L31.368,26c0.064,0.032,0.128,0.049,0.2,0.049c0.192,0,0.4-0.097,0.624-0.28
	c0.216-0.176,0.36-0.352,0.44-0.544c-0.168-0.271-0.448-0.583-0.839-0.919c-0.44-0.376-0.872-0.656-1.304-0.848l0.176-1.048
	c0.448,0.2,0.903,0.544,1.383,1.048c0.352,0.367,0.64,0.735,0.863,1.104c0.072-0.145,0.112-0.456,0.112-0.952
	c0-0.359-0.016-0.751-0.048-1.183L33.798,22.099z M33.086,26.064c0.016-0.016,0.024-0.04,0.024-0.072
	c0-0.111-0.048-0.231-0.136-0.359c-0.088,0.096-0.248,0.239-0.488,0.432c0.088,0.032,0.192,0.056,0.328,0.056
	C32.958,26.12,33.046,26.104,33.086,26.064z M37.079,26.92h-0.408c-0.096,0.408-0.336,0.8-0.712,1.167
	c-0.352,0.353-0.759,0.616-1.215,0.792l-0.567-0.544c0.368-0.136,0.743-0.344,1.119-0.607c0.408-0.296,0.656-0.552,0.744-0.783
	c-0.488,0-0.824-0.072-1.016-0.2c-0.208-0.128-0.312-0.368-0.312-0.704c0-0.247,0.072-0.503,0.208-0.775
	c0.176-0.336,0.4-0.504,0.672-0.504c0.32,0,0.576,0.145,0.775,0.424c0.168,0.232,0.264,0.504,0.312,0.824h0.4V26.92z M36.055,26.017
	c-0.016-0.128-0.064-0.24-0.16-0.344c-0.096-0.104-0.192-0.16-0.304-0.16c-0.088,0-0.168,0.04-0.232,0.12
	c-0.056,0.072-0.088,0.136-0.088,0.2c0,0.151,0.128,0.231,0.392,0.231C35.783,26.064,35.911,26.049,36.055,26.017z M42.421,26.92
	h-0.232c-0.392,0-0.696-0.136-0.912-0.424c-0.344,0.288-0.839,0.424-1.479,0.424h-0.904c-0.447,0-0.743-0.112-0.896-0.352
	c-0.16,0.239-0.408,0.352-0.751,0.352h-0.392v-0.911h0.296c0.335,0,0.503-0.152,0.503-0.456v-0.271l0.616-0.177v0.328
	c0,0.184,0.008,0.32,0.04,0.392C38.359,25.937,38.463,26,38.615,26c0.096,0,0.216-0.088,0.352-0.264
	c0.808-0.991,1.471-1.487,1.991-1.487c0.288,0,0.528,0.088,0.712,0.256c0.208,0.177,0.304,0.416,0.304,0.712
	c0,0.271-0.064,0.512-0.184,0.72c0.024,0.048,0.176,0.072,0.456,0.072h0.176V26.92z M41.326,25.449c0-0.097-0.048-0.177-0.152-0.232
	c-0.096-0.063-0.232-0.096-0.399-0.096c-0.24,0-0.504,0.12-0.792,0.352c-0.08,0.064-0.256,0.24-0.528,0.52h0.384
	c0.4,0,0.751-0.056,1.047-0.159C41.182,25.729,41.326,25.601,41.326,25.449z M47.142,26.92h-0.887c-0.608,0-0.92-0.376-0.936-1.136
	c-0.152,0.088-0.392,0.248-0.704,0.496c-0.28,0.216-0.512,0.359-0.696,0.448c-0.28,0.128-0.592,0.191-0.928,0.191H42.2v-0.911h0.672
	c0.375,0,0.728-0.08,1.071-0.248c0.264-0.136,0.528-0.28,0.8-0.424c-0.104-0.016-0.304-0.048-0.616-0.104
	c-0.28-0.048-0.44-0.071-0.48-0.071c-0.112,0-0.24,0.111-0.375,0.319c-0.248-0.096-0.448-0.191-0.592-0.271
	c0.248-0.624,0.536-0.936,0.855-0.936c0.008,0,0.344,0.072,0.991,0.208c0.656,0.136,1.208,0.208,1.655,0.208
	c0.16,0,0.304-0.008,0.44-0.024l-0.112,0.888c-0.248,0-0.496,0.032-0.72,0.104c0.024,0.104,0.064,0.185,0.112,0.232
	c0.096,0.08,0.256,0.12,0.48,0.12h0.759V26.92z M49.807,25.992c0,0.168-0.056,0.344-0.152,0.528
	c-0.112,0.208-0.232,0.304-0.368,0.304c-0.208,0-0.432-0.057-0.68-0.168c-0.2-0.096-0.336-0.176-0.424-0.256
	c-0.272,0.344-0.64,0.52-1.095,0.52H46.92v-0.911h0.144c0.416,0,0.695-0.12,0.839-0.376c0.12-0.2,0.232-0.4,0.352-0.607
	c0.224-0.296,0.456-0.448,0.712-0.448c0.304,0,0.536,0.192,0.688,0.56C49.751,25.4,49.807,25.681,49.807,25.992z M49.279,25.896
	c0-0.144-0.048-0.28-0.136-0.399c-0.08-0.128-0.176-0.185-0.272-0.185c-0.16,0-0.271,0.137-0.344,0.408
	c0.152,0.112,0.344,0.191,0.56,0.256C49.215,26.017,49.279,25.984,49.279,25.896z M56.989,26.92h-0.216
	c-0.272,0-0.448-0.048-0.528-0.16c0,0.616-0.184,1.136-0.56,1.543c-0.392,0.44-0.912,0.664-1.551,0.664
	c-0.631,0-1.103-0.2-1.415-0.592c-0.256-0.319-0.376-0.728-0.376-1.224c0-0.399,0.104-0.815,0.32-1.247l0.608,0.216
	c-0.144,0.368-0.216,0.656-0.216,0.855c0,0.336,0.104,0.592,0.295,0.784c0.2,0.191,0.488,0.296,0.864,0.296
	c0.4,0,0.728-0.12,0.976-0.36c0.232-0.224,0.352-0.504,0.352-0.848c0-0.352-0.128-0.703-0.384-1.055l0.688-0.64
	c0.152,0.304,0.248,0.479,0.288,0.543c0.152,0.208,0.328,0.312,0.528,0.312h0.328V26.92z M54.791,24.617l-0.52,0.688l-0.704-0.472
	l0.52-0.688L54.791,24.617z M58.399,25.648c0,0.344-0.096,0.632-0.288,0.855c-0.24,0.28-0.607,0.416-1.111,0.416h-0.232v-0.911
	h0.624c0.271,0,0.408-0.064,0.408-0.2c0-0.088-0.056-0.208-0.176-0.359l-0.271-0.345l0.52-0.735
	C58.224,24.721,58.399,25.145,58.399,25.648z M58.895,27.896l-0.432,0.575l-0.536-0.375l-0.312,0.439l-0.671-0.456l0.432-0.583
	l0.56,0.384l0.312-0.433L58.895,27.896z M63.717,26.92h-0.359c-0.608,0-0.968-0.52-1.087-1.567c-0.088,0.464-0.32,0.864-0.696,1.199
	c-0.392,0.344-0.815,0.521-1.279,0.521l-0.6-0.64c0.368,0,0.735-0.088,1.119-0.272c0.376-0.176,0.6-0.367,0.656-0.583
	c0.008-0.017,0.008-0.032,0.008-0.057c0-0.231-0.248-0.56-0.744-0.999c-0.48-0.432-0.952-0.752-1.423-0.96l0.176-1.007
	c0.528,0.271,1.04,0.671,1.535,1.199c0.464,0.504,0.736,0.928,0.832,1.279c0.048-0.2,0.064-0.488,0.064-0.872
	c0-0.495-0.032-1.071-0.088-1.727l0.864-0.32v0.943c0.008,1.016,0.064,1.743,0.167,2.191c0.128,0.504,0.336,0.76,0.632,0.76h0.224
	V26.92z M65.127,25.648c0,0.344-0.096,0.632-0.288,0.855c-0.239,0.28-0.607,0.416-1.111,0.416h-0.231v-0.911h0.623
	c0.272,0,0.408-0.064,0.408-0.2c0-0.088-0.056-0.208-0.176-0.359l-0.272-0.345l0.521-0.735
	C64.952,24.721,65.127,25.145,65.127,25.648z M65.095,23.098l-0.512,0.688l-0.703-0.473l0.512-0.688L65.095,23.098z M68.134,21.228
	c-0.096,0.176-0.248,0.319-0.439,0.432c-0.168,0.088-0.344,0.136-0.512,0.136c-0.136,0-0.304-0.017-0.487-0.056
	c-0.192-0.032-0.336-0.049-0.424-0.049c-0.217,0-0.393,0.072-0.536,0.208l-0.28-0.376c0.208-0.256,0.448-0.392,0.729-0.392
	c0.096,0,0.239,0.017,0.415,0.048c0.176,0.032,0.336,0.057,0.479,0.057c0.376,0,0.664-0.128,0.864-0.384L68.134,21.228z
	 M67.167,26.824l-0.592,0.216l-0.232-4.605l0.824-0.32V26.824z M72.59,25.816c0,0.368-0.12,0.664-0.359,0.88
	c-0.216,0.199-0.479,0.296-0.792,0.296c-0.319,0-0.567-0.08-0.743-0.24c-0.152-0.151-0.232-0.352-0.232-0.6
	c0-0.319,0.152-0.72,0.448-1.191l-0.168-0.08l0.432-0.735c0.392,0.136,0.72,0.344,0.976,0.632
	C72.447,25.097,72.59,25.44,72.59,25.816z M71.975,25.872c0-0.247-0.2-0.463-0.6-0.655c-0.192,0.256-0.288,0.456-0.288,0.6
	c0,0.216,0.12,0.32,0.376,0.32c0.12,0,0.224-0.017,0.328-0.064C71.911,26.017,71.975,25.952,71.975,25.872z M74.903,26.92h-0.271
	c-0.544,0-0.904-0.176-1.096-0.527c-0.128-0.232-0.192-0.632-0.216-1.208l-0.08-2.75l0.792-0.32v3.175
	c0,0.479,0.191,0.72,0.575,0.72h0.296V26.92z M79.054,26.92h-0.48c-0.287,0-0.592-0.104-0.911-0.328
	c-0.304-0.208-0.552-0.464-0.752-0.759c0,0.423-0.176,0.728-0.543,0.896c-0.272,0.128-0.672,0.191-1.208,0.191h-0.487v-0.911h0.504
	c0.487,0,0.815-0.024,0.983-0.08c0.168-0.057,0.247-0.16,0.247-0.328c0-0.16-0.184-0.399-0.551-0.72
	c-0.4-0.352-0.632-0.6-0.688-0.728c0.009-0.144,0.04-0.288,0.08-0.439c0.048-0.192,0.112-0.304,0.176-0.336
	c0.672-0.352,1.848-0.792,3.519-1.312l-0.112,0.84c-0.376,0.096-0.735,0.191-1.063,0.288c-0.799,0.231-1.407,0.432-1.831,0.607
	c-0.096,0.04-0.111,0.08-0.04,0.136c0.32,0.24,0.752,0.624,1.304,1.151c0.408,0.392,0.64,0.607,0.712,0.664
	c0.239,0.168,0.52,0.256,0.839,0.256h0.305V26.92z M78.99,21.299l-0.048,0.44c-0.52,0.159-0.991,0.304-1.415,0.439
	c-1.016,0.328-1.703,0.567-2.055,0.728l0.111-0.439C76,22.259,77.135,21.867,78.99,21.299z M83.318,25.633
	c0,0.336-0.088,0.623-0.272,0.888c-0.191,0.271-0.432,0.415-0.719,0.415c-0.408,0-0.712-0.144-0.896-0.424
	c-0.16,0.272-0.393,0.408-0.688,0.408c-0.375,0-0.639-0.136-0.799-0.408c-0.064,0.112-0.185,0.208-0.336,0.288
	c-0.168,0.08-0.344,0.12-0.536,0.12h-0.239v-0.911h0.319c0.136,0,0.256-0.04,0.344-0.112c0.104-0.096,0.16-0.208,0.16-0.359v-0.232
	l0.56-0.184v0.248c0,0.184,0.04,0.336,0.112,0.455c0.08,0.128,0.184,0.185,0.304,0.185c0.376,0,0.56-0.168,0.56-0.504v-0.312
	l0.567-0.168v0.392c0,0.184,0.057,0.327,0.16,0.439c0.104,0.12,0.232,0.176,0.399,0.176c0.232,0,0.345-0.104,0.345-0.319
	c0-0.2-0.089-0.384-0.272-0.552l0.56-0.624C83.198,24.81,83.318,25.169,83.318,25.633z M80.456,23.897l0.392-0.544l0.527,0.353
	l0.296-0.408l0.616,0.408l-0.416,0.535l-0.52-0.344l-0.288,0.408L80.456,23.897z M80.751,23.019l0.407-0.536l0.56,0.384
	l-0.392,0.536L80.751,23.019z M86.199,26.208c0,0.48-0.2,0.976-0.616,1.464c-0.399,0.472-0.847,0.791-1.351,0.967l-0.56-0.527
	c0.447-0.176,0.871-0.432,1.263-0.775c0.376-0.312,0.576-0.576,0.608-0.784c-0.145,0.072-0.312,0.104-0.512,0.104
	c-0.561,0-0.84-0.264-0.84-0.808c0-0.248,0.072-0.512,0.208-0.792c0.184-0.352,0.399-0.527,0.671-0.527
	c0.384,0,0.672,0.176,0.872,0.527C86.119,25.353,86.199,25.736,86.199,26.208z M85.527,25.824c-0.016-0.151-0.072-0.279-0.168-0.384
	c-0.088-0.096-0.176-0.136-0.271-0.136c-0.088,0-0.16,0.032-0.232,0.112c-0.071,0.071-0.104,0.151-0.104,0.248
	c0,0.159,0.128,0.239,0.399,0.239C85.311,25.904,85.439,25.881,85.527,25.824z M89.942,26.92h-0.256
	c-0.208,0-0.352-0.048-0.447-0.152c-0.032,0.416-0.232,0.816-0.6,1.191c-0.36,0.384-0.824,0.688-1.392,0.904l-0.664-0.456
	c0.561-0.24,1.04-0.536,1.447-0.88c0.393-0.336,0.584-0.607,0.584-0.815c0-0.16-0.136-0.424-0.416-0.808l0.616-0.672
	c0.191,0.32,0.336,0.521,0.439,0.608c0.12,0.111,0.28,0.168,0.472,0.168h0.216V26.92z M92.063,25.528
	c0,0.928-0.576,1.392-1.719,1.392H89.72v-0.911h1.087c0.44,0,0.664-0.152,0.664-0.456c-0.096,0.112-0.296,0.168-0.592,0.168
	c-0.512,0-0.76-0.24-0.76-0.72c0-0.224,0.072-0.479,0.232-0.76c0.184-0.336,0.407-0.512,0.672-0.512
	c0.256,0,0.487,0.185,0.703,0.536C91.951,24.633,92.063,25.057,92.063,25.528z M91.368,22.635l-0.512,0.688l-0.712-0.472l0.52-0.688
	L91.368,22.635z M91.288,24.873c-0.032-0.112-0.08-0.2-0.16-0.28c-0.072-0.079-0.144-0.119-0.208-0.119
	c-0.056,0-0.112,0.04-0.176,0.104c-0.064,0.072-0.096,0.136-0.096,0.184c0,0.192,0.096,0.288,0.296,0.288
	C91.127,25.049,91.24,24.985,91.288,24.873z"/>
<path fill-rule="evenodd" clip-rule="evenodd" fill="#B4B4B4" d="M40.379,15.436V4.312c0-1.209-0.638-1.697-1.669-1.838v11.198
	C38.71,14.821,39.399,15.297,40.379,15.436 M20.192,2.643c0,0.631,0.427,1.145,1.078,1.145c0.664,0,1.162-0.476,1.162-1.145
	c0-0.687-0.503-1.071-1.162-1.071C20.62,1.572,20.192,1.992,20.192,2.643z M16.872,2.643c0,0.671,0.473,1.145,1.145,1.145
	c0.642,0,1.089-0.519,1.089-1.145c0-0.646-0.449-1.071-1.089-1.071C17.35,1.572,16.872,1.955,16.872,2.643z M11.986,13.771H8.863
	c-1.692,0-3.141-1.565-3.141-3.231c0-1.641,1.491-3.171,3.141-3.171c1.69,0,3.123,1.498,3.123,3.171V13.771z M13.619,18.771v-3.513
	h23.138c0-3.12,0-6.239,0-9.359C35.81,6.043,35.16,6.666,35.16,7.724c0,1.899,0,3.799,0,5.699v0.349h-2.446V7.75
	c-0.907,0.16-1.602,0.724-1.597,1.756l0.02,4.265h-2.721V9.972c-0.901,0.231-1.688,0.757-1.688,1.812v1.987h-6.051V5.543
	c-0.892,0.168-1.633,0.869-1.633,1.834v6.394h-5.426V10.54c0-2.662-2.109-4.708-4.756-4.708c-2.703,0-4.755,1.984-4.755,4.701
	c0,2.713,2.077,4.725,4.774,4.725h3.104v1.611C11.986,17.991,12.648,18.571,13.619,18.771z M60.91,13.074V10.54
	c0-1.26-1.151-2.474-2.425-2.474c-1.258,0-2.527,1.269-2.492,2.533c0.033,1.212,1.268,2.474,2.492,2.474H60.91z M67.836,15.956
	c-1.548-0.091-2.695-0.82-2.695-2.497V1.509L65.51,1.53c1.618,0.096,2.695,0.837,2.695,2.57v11.877L67.836,15.956z M53.656,13.074
	c-0.379-0.782-0.642-1.663-0.642-2.516c0-3.088,2.403-5.398,5.472-5.398c2.969,0,5.454,2.413,5.454,5.398v5.399H48.027
	c-3.143,0-5.472-2.236-5.472-5.399V5.072l0.38,0.034c1.507,0.134,2.649,1.029,2.649,2.624v2.828c0,1.269,1.131,2.516,2.425,2.516
	H53.656z M56.716,2.662c0-1.061,0.799-1.788,1.842-1.788c1.054,0,1.769,0.74,1.769,1.788c0,1.05-0.701,1.824-1.769,1.824
	C57.501,4.485,56.716,3.725,56.716,2.662z M77.861,7.73c0.265-1.138,1.375-2.05,2.547-2.05c2.116,0,4.233,0,6.35,0
	c1.572,0,2.516-1.204,2.725-2.666l0.057-0.398c-3.043,0-6.087,0-9.131,0c-3.221,0-5.538,2.271-5.538,5.5v2.673
	c5.125,0.012,10.232,0.027,15.357,0.027c-0.265,1.138-1.375,2.258-2.547,2.258H72.667V5.011L72.27,5.065
	c-1.532,0.21-2.596,0.965-2.596,2.623v11.789l0.371-0.024c2.317-0.147,2.595-1.628,2.619-3.489h1.374v-0.006H87.68
	c3.221,0,5.538-2.298,5.538-5.526V7.758C88.093,7.746,82.985,7.73,77.861,7.73z M89.582,0l-0.063,0.403
	c-0.165,1.042-0.892,1.951-2.014,1.951c-2.718,0-5.43,0.003-8.148,0.003l0.063-0.403c0.164-1.042,0.892-1.952,2.014-1.952
	C84.151,0.003,86.862,0,89.582,0z M0.059,18.695c0.858-0.218,1.669-0.953,1.669-1.867V5.9C0.93,6.12-0.019,6.811,0.059,7.669V18.695
	z"/>
</svg>
