<?xml version="1.0" encoding="utf-8"?>
<!-- Generator: Adobe Illustrator 16.0.0, SVG Export Plug-In . SVG Version: 6.00 Build 0)  -->
<!DOCTYPE svg PUBLIC "-//W3C//DTD SVG 1.1//EN" "http://www.w3.org/Graphics/SVG/1.1/DTD/svg11.dtd">
<svg version="1.1" id="Layer_1" xmlns="http://www.w3.org/2000/svg" xmlns:xlink="http://www.w3.org/1999/xlink" x="0px" y="0px"
	 width="151.629px" height="33.877px" viewBox="91.724 0 151.629 33.877" enable-background="new 91.724 0 151.629 33.877"
	 xml:space="preserve">
<g>
	<path fill="#142A44" d="M234.055,9.122l0.582,0.178h4.784c0-2.086-0.857-3.13-2.571-3.13c-0.821,0-1.49,0.235-2.012,0.705
		C234.318,7.345,234.055,8.094,234.055,9.122 M242.193,9.637c0,0.342-0.037,0.714-0.111,1.118h-8.026
		c0,2.057,1.23,3.084,3.688,3.084c1.551,0,2.772-0.223,3.668-0.67l0.515,1.855c-1.193,0.493-2.603,0.738-4.228,0.738
		c-1.997,0-3.564-0.459-4.705-1.375c-1.141-0.917-1.71-2.374-1.71-4.371c0-1.968,0.502-3.406,1.509-4.315s2.353-1.365,4.035-1.365
		c1.67,0,2.98,0.433,3.934,1.297C241.715,6.498,242.193,7.833,242.193,9.637z M224.173,15.494V5.098
		c0.402-0.209,0.979-0.383,1.732-0.526c0.752-0.141,1.465-0.212,2.136-0.212c1.013,0,1.833,0.089,2.459,0.268l-0.358,1.923
		c-0.343-0.149-0.865-0.223-1.564-0.223c-0.746,0-1.35,0.097-1.812,0.29v8.875L224.173,15.494L224.173,15.494z M210.29,10.062
		c0-0.999,0.167-1.875,0.503-2.627c0.335-0.753,0.793-1.348,1.374-1.789c0.583-0.439,1.223-0.767,1.923-0.984
		c0.701-0.216,1.446-0.324,2.235-0.324c1.684,0,3.108,0.473,4.271,1.42c1.162,0.946,1.743,2.381,1.743,4.304
		c0,1.922-0.578,3.354-1.731,4.292c-1.155,0.939-2.583,1.408-4.282,1.408c-1.698,0-3.13-0.47-4.293-1.408
		C210.872,13.415,210.29,11.984,210.29,10.062z M219.656,10.062c0-1.326-0.326-2.288-0.981-2.885
		c-0.657-0.596-1.438-0.895-2.35-0.895c-0.923,0-1.714,0.298-2.369,0.895c-0.656,0.596-0.983,1.558-0.983,2.885
		c0,1.312,0.327,2.269,0.983,2.873c0.655,0.604,1.445,0.905,2.369,0.905c0.911,0,1.692-0.302,2.35-0.905
		C219.33,12.331,219.656,11.373,219.656,10.062z M200.207,6.573V4.851l2.034-0.224l0.313-3.443h2.282v3.443h3.8v1.946h-3.8v4.897
		c0,0.85,0.166,1.449,0.501,1.799c0.336,0.351,0.824,0.525,1.465,0.525c0.82,0,1.55-0.224,2.189-0.671l0.357,1.833
		c-0.849,0.507-1.854,0.761-3.018,0.761c-2.728,0-4.092-1.349-4.092-4.047V6.573H200.207z M188.692,14.667l0.356-1.945
		c1.148,0.64,2.543,0.961,4.182,0.961c0.954,0,1.738-0.165,2.358-0.492c0.619-0.329,0.927-0.812,0.927-1.454
		c0-0.507-0.26-0.928-0.781-1.263c-0.521-0.335-1.151-0.618-1.89-0.849c-0.737-0.23-1.479-0.491-2.225-0.783
		c-0.745-0.29-1.38-0.741-1.9-1.352c-0.521-0.611-0.782-1.379-0.782-2.303c0-1.356,0.502-2.369,1.509-3.041
		c1.006-0.67,2.255-1.006,3.744-1.006c1.805,0,3.332,0.35,4.584,1.05l-0.38,1.945c-1.087-0.626-2.385-0.938-3.89-0.938
		c-0.82,0-1.498,0.149-2.035,0.447s-0.806,0.744-0.806,1.341c0,0.537,0.261,0.984,0.782,1.342c0.522,0.358,1.152,0.648,1.89,0.872
		c0.738,0.224,1.48,0.477,2.226,0.76c0.746,0.282,1.379,0.723,1.9,1.318c0.522,0.596,0.782,1.342,0.782,2.235
		c0,0.955-0.282,1.759-0.85,2.415c-0.566,0.657-1.271,1.118-2.113,1.387c-0.843,0.268-1.784,0.402-2.828,0.402
		C191.56,15.718,189.974,15.367,188.692,14.667z M175.546,15.494V0h3.823v4.494c0.7-0.223,1.379-0.335,2.034-0.335
		c1.654,0,2.997,0.376,4.024,1.13c1.028,0.753,1.541,1.873,1.541,3.365v6.84h-3.823V8.832c0-0.715-0.173-1.211-0.524-1.486
		c-0.351-0.276-0.845-0.415-1.486-0.415c-0.806,0-1.394,0.09-1.766,0.269v8.294H175.546z M169.778,9.883
		c0-2.027-0.903-3.04-2.707-3.04c-0.447,0-0.849,0.068-1.206,0.201v5.701c0.388,0.165,0.805,0.246,1.252,0.246
		c0.744,0,1.375-0.246,1.889-0.737C169.521,11.76,169.778,10.969,169.778,9.883z M162.042,21.083V4.896
		c1.4-0.537,3.04-0.804,4.917-0.804c4.501,0,6.753,1.968,6.753,5.903c0,1.908-0.511,3.342-1.531,4.304
		c-1.021,0.961-2.425,1.442-4.214,1.442c-0.805,0-1.505-0.097-2.1-0.29v5.634h-3.825V21.083z M156.161,13.326v-2.37h-1.364
		c-1.312,0-1.965,0.432-1.965,1.297c0,0.402,0.166,0.715,0.501,0.939c0.336,0.224,0.778,0.335,1.332,0.335
		C155.154,13.527,155.655,13.46,156.161,13.326z M159.985,8.34v6.684c-1.641,0.537-3.496,0.805-5.567,0.805
		c-1.789,0-3.157-0.246-4.103-0.737c-0.947-0.493-1.422-1.372-1.422-2.638c0-1.223,0.382-2.105,1.142-2.649s2.071-0.817,3.935-0.817
		h2.19V8.34c0-0.552-0.165-0.94-0.491-1.163c-0.329-0.223-0.812-0.335-1.454-0.335c-1.401,0-2.81,0.246-4.226,0.737l-0.447-2.75
		c1.655-0.493,3.271-0.737,4.852-0.737C158.122,4.092,159.985,5.507,159.985,8.34z M140.757,15.494V4.941
		c0.536-0.254,1.236-0.458,2.101-0.614c0.865-0.157,1.671-0.235,2.416-0.235c1.237,0,2.184,0.096,2.84,0.29l-0.47,2.75
		c-0.312-0.164-0.812-0.245-1.497-0.245c-0.687,0-1.209,0.081-1.566,0.245v8.361H140.757z M130.495,4.796
		c-0.893,0.812-1.341,1.993-1.341,3.544c0,1.55,0.47,2.725,1.408,3.521c0.94,0.797,2.082,1.196,3.421,1.196
		c0.269,0,0.566-0.045,0.895-0.135V7.781h3.533v6.999c-1.147,0.714-2.758,1.072-4.829,1.072c-1.163,0-2.244-0.146-3.241-0.436
		c-1-0.29-1.905-0.728-2.718-1.308c-0.812-0.581-1.452-1.367-1.921-2.359c-0.47-0.992-0.705-2.136-0.705-3.432
		c0-1.297,0.226-2.441,0.683-3.433c0.454-0.992,1.075-1.778,1.866-2.359c0.79-0.581,1.673-1.016,2.649-1.308
		c0.978-0.292,2.032-0.436,3.164-0.436c1.877,0,3.354,0.291,4.427,0.872l-0.447,2.728c-0.909-0.536-2.103-0.804-3.577-0.804
		C132.477,3.577,131.388,3.983,130.495,4.796z"/>
	<path fill="#808081" d="M238.757,26.167l0.226,0.07h1.862c0-0.812-0.333-1.218-1.002-1.218c-0.317,0-0.58,0.092-0.783,0.273
		C238.86,25.475,238.757,25.766,238.757,26.167 M241.926,26.367c0,0.133-0.016,0.278-0.044,0.435h-3.125
		c0,0.801,0.479,1.2,1.435,1.2c0.604,0,1.079-0.086,1.429-0.26l0.199,0.724c-0.463,0.191-1.013,0.286-1.644,0.286
		c-0.777,0-1.389-0.179-1.833-0.536c-0.443-0.354-0.666-0.922-0.666-1.7c0-0.766,0.196-1.326,0.589-1.681
		c0.392-0.354,0.915-0.53,1.57-0.53c0.65,0,1.161,0.168,1.531,0.503C241.739,25.145,241.926,25.665,241.926,26.367z M234.911,28.647
		V24.6c0.158-0.082,0.382-0.149,0.675-0.204c0.294-0.057,0.57-0.083,0.832-0.083c0.394,0,0.713,0.034,0.957,0.104l-0.14,0.75
		c-0.134-0.06-0.337-0.088-0.608-0.088c-0.291,0-0.526,0.037-0.705,0.115v3.454L234.911,28.647L234.911,28.647z M229.506,26.533
		c0-0.39,0.065-0.73,0.196-1.023c0.13-0.292,0.309-0.525,0.536-0.695c0.227-0.171,0.475-0.298,0.749-0.384
		c0.272-0.083,0.562-0.125,0.87-0.125c0.655,0,1.209,0.185,1.662,0.553s0.681,0.927,0.681,1.675s-0.226,1.305-0.676,1.67
		c-0.449,0.366-1.006,0.547-1.667,0.547c-0.662,0-1.218-0.181-1.671-0.547C229.733,27.837,229.506,27.281,229.506,26.533z
		 M233.153,26.533c0-0.517-0.128-0.892-0.383-1.123c-0.257-0.231-0.56-0.349-0.915-0.349c-0.359,0-0.666,0.117-0.922,0.349
		s-0.384,0.606-0.384,1.123c0,0.511,0.128,0.882,0.384,1.117c0.256,0.236,0.562,0.352,0.922,0.352c0.354,0,0.658-0.117,0.915-0.352
		C233.025,27.415,233.153,27.043,233.153,26.533z M225.582,25.175v-0.671l0.792-0.088l0.121-1.34h0.887v1.34h1.48v0.759h-1.48v1.906
		c0,0.33,0.066,0.563,0.196,0.7c0.131,0.136,0.32,0.204,0.571,0.204c0.318,0,0.603-0.086,0.853-0.26l0.14,0.714
		c-0.331,0.197-0.723,0.296-1.175,0.296c-1.062,0-1.593-0.524-1.593-1.574v-1.986H225.582L225.582,25.175z M221.101,28.326
		l0.139-0.759c0.448,0.252,0.989,0.375,1.626,0.375c0.373,0,0.68-0.063,0.919-0.191s0.36-0.315,0.36-0.565
		c0-0.198-0.102-0.361-0.306-0.491c-0.202-0.132-0.446-0.243-0.735-0.331c-0.287-0.091-0.575-0.192-0.866-0.306
		c-0.29-0.113-0.537-0.289-0.737-0.527c-0.203-0.238-0.307-0.537-0.307-0.896c0-0.528,0.196-0.923,0.589-1.184
		c0.392-0.261,0.877-0.393,1.458-0.393c0.702,0,1.295,0.137,1.782,0.409l-0.147,0.758c-0.424-0.245-0.929-0.366-1.515-0.366
		c-0.318,0-0.583,0.058-0.792,0.173c-0.208,0.118-0.312,0.29-0.312,0.524c0,0.207,0.102,0.382,0.304,0.521
		c0.203,0.139,0.448,0.254,0.735,0.34c0.286,0.088,0.576,0.185,0.866,0.297c0.29,0.109,0.539,0.281,0.739,0.513
		c0.204,0.231,0.306,0.522,0.306,0.871c0,0.371-0.11,0.684-0.331,0.939c-0.22,0.256-0.495,0.435-0.821,0.541
		c-0.329,0.104-0.695,0.156-1.104,0.156C222.217,28.734,221.599,28.597,221.101,28.326z M215.261,26.167l0.226,0.07h1.861
		c0-0.812-0.333-1.218-1-1.218c-0.318,0-0.581,0.092-0.782,0.273C215.362,25.475,215.261,25.766,215.261,26.167z M218.428,26.367
		c0,0.133-0.014,0.278-0.044,0.435h-3.124c0,0.801,0.479,1.2,1.436,1.2c0.604,0,1.078-0.086,1.427-0.26l0.201,0.724
		c-0.465,0.191-1.013,0.286-1.645,0.286c-0.777,0-1.389-0.179-1.832-0.536c-0.443-0.354-0.665-0.922-0.665-1.7
		c0-0.766,0.195-1.326,0.588-1.681c0.391-0.354,0.915-0.53,1.57-0.53c0.648,0,1.16,0.168,1.531,0.503
		C218.243,25.145,218.428,25.665,218.428,26.367z M209.449,28.647v-4.003c0.48-0.228,1.151-0.34,2.009-0.34
		c0.621,0,1.124,0.135,1.51,0.404c0.386,0.269,0.58,0.719,0.58,1.344v2.594h-1.011v-2.551c0-0.41-0.099-0.686-0.297-0.824
		c-0.196-0.142-0.46-0.211-0.791-0.211c-0.43,0-0.76,0.062-0.992,0.183v3.403L209.449,28.647L209.449,28.647z M207.351,22.947
		c0-0.174,0.062-0.321,0.183-0.444c0.12-0.122,0.27-0.184,0.443-0.184c0.168,0,0.313,0.062,0.438,0.184
		c0.12,0.121,0.181,0.269,0.181,0.444c0,0.169-0.061,0.312-0.181,0.436c-0.123,0.121-0.268,0.182-0.438,0.182
		c-0.174,0-0.321-0.061-0.443-0.182C207.412,23.258,207.351,23.116,207.351,22.947z M207.472,28.647v-4.23h1.011v4.23H207.472z
		 M204.993,27.298v-4.569h1.009v4.48c0,0.285,0.038,0.481,0.114,0.589c0.075,0.108,0.191,0.161,0.349,0.161
		c0.128,0,0.256-0.025,0.384-0.078l0.139,0.723c-0.226,0.076-0.494,0.114-0.801,0.114C205.39,28.716,204.993,28.242,204.993,27.298z
		 M199.996,28.647v-4.003c0.483-0.228,1.153-0.34,2.011-0.34c0.621,0,1.124,0.135,1.511,0.404c0.386,0.269,0.578,0.719,0.578,1.344
		v2.594h-1.01v-2.551c0-0.41-0.098-0.686-0.296-0.824c-0.197-0.142-0.461-0.211-0.792-0.211c-0.429,0-0.76,0.062-0.992,0.183v3.403
		L199.996,28.647L199.996,28.647z M194.241,28.01c-0.554-0.498-0.832-1.2-0.832-2.104c0-0.906,0.278-1.61,0.832-2.111
		c0.554-0.5,1.248-0.752,2.084-0.752c0.841,0,1.538,0.252,2.094,0.752c0.554,0.501,0.83,1.205,0.83,2.111
		c0,0.904-0.276,1.606-0.83,2.104c-0.555,0.499-1.251,0.748-2.094,0.748C195.49,28.758,194.795,28.511,194.241,28.01z
		 M198.143,25.906c0-0.633-0.168-1.136-0.505-1.51c-0.337-0.375-0.774-0.562-1.313-0.562s-0.976,0.187-1.31,0.562
		c-0.334,0.374-0.5,0.877-0.5,1.51c0,0.627,0.166,1.126,0.5,1.501c0.334,0.374,0.771,0.56,1.31,0.56s0.977-0.186,1.313-0.56
		C197.975,27.032,198.143,26.533,198.143,25.906z M187.23,28.427l0.139-0.737c0.401,0.185,0.862,0.276,1.386,0.276
		c0.673,0,1.009-0.176,1.009-0.529c0-0.158-0.083-0.275-0.252-0.356c-0.168-0.082-0.372-0.146-0.613-0.191
		c-0.241-0.047-0.483-0.104-0.724-0.169c-0.241-0.067-0.445-0.194-0.613-0.38s-0.252-0.429-0.252-0.73
		c0-0.44,0.163-0.768,0.492-0.978c0.326-0.211,0.77-0.318,1.325-0.318c0.541,0,1.037,0.103,1.488,0.306l-0.147,0.757
		c-0.378-0.203-0.798-0.305-1.262-0.305c-0.25,0-0.458,0.041-0.627,0.126c-0.167,0.084-0.253,0.21-0.253,0.378
		c0,0.15,0.084,0.267,0.253,0.348c0.169,0.082,0.373,0.146,0.613,0.188c0.241,0.044,0.483,0.102,0.727,0.17
		c0.245,0.068,0.45,0.199,0.618,0.388c0.169,0.188,0.254,0.438,0.254,0.743c0,0.877-0.64,1.314-1.924,1.314
		C188.24,28.725,187.694,28.625,187.23,28.427z M183.254,25.175v-0.671l0.792-0.088l0.12-1.34h0.888v1.34h1.48v0.759h-1.48v1.906
		c0,0.33,0.066,0.563,0.195,0.7c0.132,0.136,0.321,0.204,0.57,0.204c0.319,0,0.604-0.086,0.854-0.26l0.14,0.714
		c-0.331,0.197-0.723,0.296-1.176,0.296c-1.061,0-1.591-0.524-1.591-1.574v-1.986H183.254L183.254,25.175z M179.32,26.498
		c0-0.384,0.067-0.72,0.2-1.011c0.133-0.29,0.312-0.52,0.54-0.687c0.225-0.168,0.478-0.293,0.752-0.375
		c0.277-0.08,0.574-0.121,0.893-0.121c0.441,0,0.848,0.09,1.219,0.27l-0.139,0.729c-0.303-0.163-0.624-0.243-0.967-0.243
		c-0.423,0-0.772,0.118-1.049,0.352c-0.275,0.236-0.413,0.596-0.413,1.083c0,0.506,0.146,0.883,0.437,1.132
		c0.289,0.251,0.657,0.375,1.105,0.375c0.342,0,0.664-0.075,0.966-0.227l0.14,0.729c-0.338,0.163-0.765,0.245-1.281,0.245
		c-0.678,0-1.247-0.192-1.71-0.574C179.549,27.794,179.32,27.234,179.32,26.498z M178.511,24.417v3.995
		c-0.482,0.227-1.151,0.34-2.01,0.34c-0.297,0-0.562-0.028-0.802-0.086c-0.237-0.06-0.455-0.152-0.656-0.28
		c-0.2-0.127-0.357-0.308-0.47-0.542c-0.113-0.235-0.17-0.516-0.17-0.839v-2.585h1.011v2.541c0,0.411,0.099,0.688,0.295,0.829
		c0.199,0.144,0.466,0.214,0.801,0.214c0.407,0,0.737-0.062,0.993-0.183v-3.404H178.511z M170.815,25.427
		c-0.271,0.231-0.405,0.608-0.405,1.131s0.132,0.894,0.396,1.112c0.264,0.221,0.599,0.331,1.006,0.331
		c0.271,0,0.507-0.039,0.703-0.121v-2.654c-0.208-0.099-0.446-0.147-0.712-0.147C171.413,25.079,171.083,25.195,170.815,25.427z
		 M173.524,22.729v5.754c-0.522,0.179-1.085,0.269-1.689,0.269c-0.759,0-1.359-0.179-1.801-0.536
		c-0.441-0.354-0.661-0.92-0.661-1.691c0-0.744,0.207-1.295,0.618-1.658s0.952-0.544,1.62-0.544c0.352,0,0.655,0.049,0.904,0.148
		v-1.741H173.524z M164.135,26.533c0-0.39,0.064-0.73,0.196-1.023c0.13-0.292,0.308-0.525,0.534-0.695
		c0.228-0.171,0.476-0.298,0.748-0.384c0.272-0.083,0.563-0.125,0.87-0.125c0.658,0,1.21,0.185,1.664,0.553
		c0.452,0.368,0.679,0.927,0.679,1.675s-0.225,1.305-0.675,1.67c-0.447,0.366-1.006,0.547-1.668,0.547
		c-0.659,0-1.218-0.181-1.67-0.547C164.36,27.837,164.135,27.281,164.135,26.533z M167.782,26.533c0-0.517-0.128-0.892-0.383-1.123
		c-0.257-0.231-0.561-0.349-0.915-0.349c-0.359,0-0.668,0.117-0.922,0.349c-0.256,0.231-0.384,0.606-0.384,1.123
		c0,0.511,0.128,0.882,0.384,1.117c0.255,0.236,0.562,0.352,0.922,0.352c0.354,0,0.658-0.117,0.915-0.352
		C167.652,27.415,167.782,27.043,167.782,26.533z M161.367,28.647V24.6c0.157-0.082,0.382-0.149,0.676-0.204
		c0.292-0.057,0.57-0.083,0.83-0.083c0.396,0,0.714,0.034,0.958,0.104l-0.14,0.75c-0.132-0.06-0.336-0.088-0.608-0.088
		c-0.29,0-0.525,0.037-0.705,0.115v3.454L161.367,28.647L161.367,28.647z M158.443,23.921h-1.122v2.07h1.122
		c0.406,0,0.697-0.088,0.871-0.265c0.173-0.176,0.259-0.435,0.259-0.771c0-0.336-0.086-0.592-0.259-0.771
		C159.14,24.008,158.849,23.921,158.443,23.921z M156.286,23.148h2.376c0.68,0,1.176,0.159,1.492,0.479
		c0.314,0.317,0.475,0.761,0.475,1.33s-0.16,1.013-0.475,1.332c-0.316,0.319-0.814,0.479-1.492,0.479h-1.341v1.88h-1.035V23.148z
		 M149.741,26.498c0-0.384,0.067-0.72,0.2-1.011c0.133-0.29,0.313-0.52,0.541-0.687c0.226-0.168,0.477-0.293,0.752-0.375
		c0.275-0.08,0.573-0.121,0.892-0.121c0.44,0,0.849,0.09,1.219,0.27l-0.138,0.729c-0.304-0.163-0.626-0.243-0.967-0.243
		c-0.424,0-0.774,0.118-1.048,0.352c-0.275,0.236-0.415,0.596-0.415,1.083c0,0.506,0.146,0.883,0.437,1.132
		c0.29,0.251,0.658,0.375,1.105,0.375c0.343,0,0.664-0.075,0.966-0.227l0.139,0.729c-0.336,0.163-0.762,0.245-1.28,0.245
		c-0.678,0-1.248-0.192-1.71-0.574C149.972,27.792,149.741,27.234,149.741,26.498z M147.808,22.947c0-0.174,0.062-0.321,0.183-0.444
		c0.122-0.122,0.27-0.184,0.445-0.184c0.168,0,0.313,0.062,0.436,0.184c0.121,0.121,0.182,0.269,0.182,0.444
		c0,0.169-0.061,0.312-0.182,0.436c-0.122,0.121-0.268,0.182-0.436,0.182c-0.175,0-0.322-0.061-0.445-0.182
		C147.87,23.258,147.808,23.116,147.808,22.947z M147.93,28.647v-4.23h1.01v4.23H147.93z M142.987,28.647v-5.918h1.009v1.775
		c0.331-0.121,0.67-0.183,1.012-0.183c1.357,0,2.037,0.578,2.037,1.732v2.593h-1.01v-2.55c0-0.4-0.092-0.67-0.275-0.81
		c-0.182-0.14-0.446-0.209-0.796-0.209c-0.405,0-0.729,0.06-0.965,0.184v3.384L142.987,28.647L142.987,28.647z M141.144,26.506
		c0-0.523-0.132-0.894-0.394-1.114c-0.26-0.221-0.593-0.331-1.001-0.331c-0.289,0-0.525,0.037-0.704,0.114v2.654
		c0.21,0.104,0.444,0.156,0.704,0.156c0.396,0,0.727-0.116,0.992-0.353C141.009,27.399,141.144,27.022,141.144,26.506z
		 M138.037,30.823v-6.239c0.499-0.186,1.062-0.278,1.688-0.278c0.76,0,1.358,0.178,1.801,0.535s0.662,0.921,0.662,1.694
		c0,0.741-0.206,1.294-0.617,1.656c-0.412,0.362-0.952,0.544-1.621,0.544c-0.353,0-0.655-0.049-0.904-0.148v2.236H138.037z
		 M136.138,27.995v-1.296h-0.748c-0.741,0-1.113,0.237-1.113,0.713c0,0.226,0.092,0.4,0.274,0.519s0.439,0.178,0.771,0.178
		C135.639,28.105,135.913,28.07,136.138,27.995z M137.147,25.888v2.592c-0.581,0.182-1.207,0.27-1.888,0.27
		c-0.644,0-1.142-0.1-1.492-0.3c-0.352-0.201-0.526-0.532-0.526-0.996c0-0.476,0.159-0.815,0.479-1.019
		c0.318-0.201,0.811-0.304,1.471-0.304h0.948v-0.243c0-0.304-0.084-0.517-0.256-0.64s-0.42-0.188-0.743-0.188
		c-0.494,0-1.005,0.091-1.532,0.27l-0.14-0.748c0.597-0.186,1.166-0.278,1.707-0.278C136.489,24.304,137.147,24.833,137.147,25.888z
		 M130.473,28.647V24.6c0.156-0.082,0.382-0.149,0.675-0.204c0.294-0.057,0.569-0.083,0.831-0.083c0.396,0,0.713,0.034,0.958,0.104
		l-0.141,0.75c-0.133-0.06-0.336-0.088-0.609-0.088c-0.289,0-0.525,0.037-0.704,0.115v3.454L130.473,28.647L130.473,28.647z
		 M126.352,24.377c-0.379,0.375-0.569,0.885-0.569,1.528c0,0.645,0.194,1.151,0.584,1.522c0.389,0.371,0.881,0.557,1.479,0.557
		c0.227,0,0.463-0.046,0.706-0.139v-2.114h0.949v2.611c-0.447,0.278-1.03,0.417-1.75,0.417c-0.887,0-1.622-0.249-2.201-0.748
		c-0.58-0.499-0.87-1.201-0.87-2.105c0-0.912,0.285-1.615,0.856-2.115c0.571-0.497,1.298-0.748,2.18-0.748
		c0.68,0,1.231,0.12,1.654,0.365l-0.139,0.749c-0.395-0.227-0.871-0.341-1.427-0.341C127.215,23.817,126.734,24.004,126.352,24.377z
		"/>
	<path fill="#1AB274" d="M121.843,20.199v10.585h-10.723c0.383-0.291,0.751-0.613,1.102-0.963L121.843,20.199z M91.724,0.665h27.483
		l-18.07,18.072l-0.005-0.005c-0.947,0.946-1.42,2.188-1.42,3.431h0.004c0.001,1.246,0.472,2.488,1.415,3.43
		c0.939,0.938,2.178,1.41,3.419,1.414h0.006h0.005h0.004c1.245-0.002,2.484-0.474,3.425-1.414l12.349-12.35
		c0.729-0.726,0.726-1.903,0-2.629c-0.726-0.727-1.903-0.727-2.628,0l-12.349,12.351c-0.224,0.223-0.511,0.335-0.795,0.335h-0.01
		c-0.284,0-0.57-0.112-0.795-0.335c-0.225-0.226-0.336-0.515-0.336-0.797v-0.004h0.005c0-0.291,0.111-0.582,0.332-0.801
		l-0.005-0.005l18.087-18.088v11.673l-12.251,12.25c-1.389,1.39-3.211,2.085-5.031,2.085c-1.82,0-3.641-0.694-5.032-2.085
		c-1.39-1.388-2.084-3.211-2.084-5.029c0-1.82,0.694-3.644,2.084-5.032l12.349-12.348c0.727-0.727,0.727-1.903,0-2.629
		s-1.903-0.726-2.629,0L96.902,14.5c-2.116,2.116-3.174,4.887-3.173,7.659c0,2.773,1.057,5.546,3.173,7.661
		c0.35,0.35,0.718,0.672,1.101,0.963h-6.279V0.665z"/>
</g>
</svg>
